<?xml version="1.0" encoding="utf-8"?>
<!-- Generator: Adobe Illustrator 16.0.0, SVG Export Plug-In . SVG Version: 6.00 Build 0)  -->
<!DOCTYPE svg PUBLIC "-//W3C//DTD SVG 1.1//EN" "http://www.w3.org/Graphics/SVG/1.1/DTD/svg11.dtd">
<svg version="1.1" id="图层_1" xmlns="http://www.w3.org/2000/svg" xmlns:xlink="http://www.w3.org/1999/xlink" x="0px" y="0px"
	 width="5385.83px" height="5669.29px" viewBox="0 0 5385.83 5669.29" enable-background="new 0 0 5385.83 5669.29"
	 xml:space="preserve">
<g>
	<path fill="#f00" d="M3003.065,2687.812c0-0.027,0.005-0.054,0.005-0.082h-0.011c-0.119-6.933-6.466-13.418-14.505-13.418
		c0,0-9.059-0.968-15.605,10.184l-2.466,4.438c-0.256,0.41-0.487,0.804-0.694,1.187h-0.004
		c-46.609,85.66-157.134,172.466-277.746,172.466c-119.996,0-230.121-86.125-277.309-171.509c-0.308-0.644-0.679-1.327-1.136-2.062
		l-0.699-1.282h-0.016l-1.75-3.156c-6.551-11.155-15.606-10.184-15.606-10.184c-8.007,0-14.335,6.43-14.503,13.336H2381
		c0,0.043,0.012,0.086,0.012,0.125c0,0.051-0.008,0.103-0.008,0.153c0,2.155,0.629,4.183,1.726,5.961
		c0.016,0.031,0.028,0.062,0.043,0.093l5.575,10.231c20.598,37.62,50.879,73.409,87.214,103.53l-66.457,41.528
		c-6.523,4.078-8.507,12.664-4.429,19.187c4.078,6.523,12.664,8.505,19.188,4.431l75.254-47.024c3.387,2.41,6.809,4.782,10.274,7.09
		c30.714,20.484,62.91,35.845,95.566,45.754l-32.672,100.556c-2.371,7.315,1.625,15.168,8.942,17.547
		c7.316,2.375,15.168-1.625,17.543-8.942l33.222-102.237c20.024,4.198,40.117,6.348,60.043,6.348
		c19.934,0,40.024-2.149,60.043-6.344l33.219,102.233c2.379,7.317,10.23,11.317,17.547,8.942
		c7.316-2.379,11.313-10.231,8.938-17.547l-32.673-100.551c32.662-9.91,64.853-25.274,95.552-45.759
		c3.469-2.312,6.891-4.683,10.278-7.098l75.269,47.032c6.521,4.078,15.108,2.093,19.185-4.431
		c4.077-6.522,2.092-15.108-4.427-19.184l-66.487-41.546c36.265-30.098,66.44-65.836,86.894-103.379l5.776-10.098
		c0.205-0.355,0.384-0.716,0.556-1.078c0.871-1.621,1.371-3.422,1.371-5.328C3003.07,2687.887,3003.065,2687.852,3003.065,2687.812
		L3003.065,2687.812z M3003.065,2687.812"/>
</g>
</svg>
